<?xml version="1.0" encoding="UTF-8" standalone="no"?>
<!-- Created by diasvg.py -->
<svg width="13.099cm" height="14.099cm" viewBox="1.950 -0.050 15.050 14.050"
 xmlns="http://www.w3.org/2000/svg"
 xmlns:xlink="http://www.w3.org/1999/xlink">
<rect x="6.000" y="8.500" width="5.000" height="3.000" fill="#0000FF" stroke="none" stroke-width="0"/>
<rect x="6.000" y="8.500" width="5.000" height="3.000" fill="none" stroke="#0000FF" stroke-width="0.001" />
<rect x="2.000" y="4.500" width="9.500" height="7.000" fill="none" stroke="#FFFFFF" stroke-width="0.099" stroke-dasharray="0.10,0.10"/>
<path stroke="#FFFFFF" fill="none" stroke-width="0.100"  d ="M 4.500,7.000 A 1.000,1.000 0 1,0 2.500,7.000 "/>
<ellipse cx="3.500" cy="5.500" rx="0.500" ry="0.500" fill="none" stroke="#FFFFFF"  stroke-width="0.099" /><line x1="2.500" y1="7.000" x2="4.500" y2="7.000" stroke="#FFFFFF" stroke-width="0.100" />
<text x="3.500" y="8.027"  fill="#FFFFFF" text-anchor="middle" font-size="0.80" font-family="Source Sans Pro" font-style="normal" font-weight="400">
Alico</text>
<path stroke="#FFFFFF" fill="none" stroke-width="0.100"  d ="M 14.500,7.000 A 1.000,1.000 0 1,0 12.500,7.000 "/>
<ellipse cx="13.500" cy="5.500" rx="0.500" ry="0.500" fill="none" stroke="#FFFFFF"  stroke-width="0.099" /><line x1="12.500" y1="7.000" x2="14.500" y2="7.000" stroke="#FFFFFF" stroke-width="0.100" />
<text x="13.500" y="8.027"  fill="#FFFFFF" text-anchor="middle" font-size="0.80" font-family="Source Sans Pro" font-style="normal" font-weight="400">
Boriso</text>
<path stroke="#FFFFFF" fill="none" stroke-width="0.100"  d ="M 9.500,2.000 A 1.000,1.000 0 1,0 7.500,2.000 "/>
<ellipse cx="8.500" cy="0.500" rx="0.500" ry="0.500" fill="none" stroke="#FFFFFF"  stroke-width="0.099" /><line x1="7.500" y1="2.000" x2="9.500" y2="2.000" stroke="#FFFFFF" stroke-width="0.100" />
<text x="8.500" y="3.027"  fill="#FFFFFF" text-anchor="middle" font-size="0.80" font-family="Source Sans Pro" font-style="normal" font-weight="400">
Eva</text>
<line x1="5.000" y1="5.500" x2="11.513" y2="5.500" stroke="#FFFFFF" stroke-width="0.100" />
<polygon fill="#FFFFFF" stroke="none" stroke-width="0.100" points="11.888,5.500 11.388,5.750 11.513,5.500 11.388,5.250 "/>
<polygon fill="none" stroke="#FFFFFF" stroke-width="0.100"  points="11.888,5.500 11.388,5.750 11.513,5.500 11.388,5.250 "/>
<line x1="12.000" y1="6.500" x2="5.487" y2="6.500" stroke="#FFFFFF" stroke-width="0.100" />
<polygon fill="#FFFFFF" stroke="none" stroke-width="0.100" points="5.112,6.500 5.612,6.250 5.487,6.500 5.612,6.750 "/>
<polygon fill="none" stroke="#FFFFFF" stroke-width="0.100"  points="5.112,6.500 5.612,6.250 5.487,6.500 5.612,6.750 "/>
<rect x="6.500" y="9.000" width="4.000" height="1.950" fill="none" stroke="#FFFFFF" stroke-width="0.099" />
<text x="8.500" y="10.205"  fill="#FFFFFF" text-anchor="middle" font-size="0.80" font-family="Source Sans Pro" font-style="normal" font-weight="400">
Servilo</text>
<polyline fill="none" stroke="#FFFFFF" stroke-width="0.100"  points="13.500,8.500 13.500,10.000 11.487,10.000 "/>
<polygon fill="#FFFFFF" stroke="none" stroke-width="0.100" points="11.112,10.000 11.612,9.750 11.487,10.000 11.612,10.250 "/>
<polygon fill="none" stroke="#FFFFFF" stroke-width="0.100"  points="11.112,10.000 11.612,9.750 11.487,10.000 11.612,10.250 "/>
<polyline fill="none" stroke="#FFFFFF" stroke-width="0.100"  points="3.500,8.500 3.500,10.000 5.513,10.000 "/>
<polygon fill="#FFFFFF" stroke="none" stroke-width="0.100" points="5.888,10.000 5.388,10.250 5.513,10.000 5.388,9.750 "/>
<polygon fill="none" stroke="#FFFFFF" stroke-width="0.100"  points="5.888,10.000 5.388,10.250 5.513,10.000 5.388,9.750 "/>
<line x1="8.500" y1="3.500" x2="8.500" y2="4.513" stroke="#FFFFFF" stroke-width="0.100" />
<polygon fill="#FFFFFF" stroke="none" stroke-width="0.100" points="8.500,4.888 8.250,4.388 8.500,4.513 8.750,4.388 "/>
<polygon fill="none" stroke="#FFFFFF" stroke-width="0.100"  points="8.500,4.888 8.250,4.388 8.500,4.513 8.750,4.388 "/>
<rect x="2.000" y="12.000" width="13.000" height="2.000" fill="none" stroke="#FFFFFF" stroke-width="0.099" />
<text x="8.500" y="13.230"  fill="#FFFFFF" text-anchor="middle" font-size="0.80" font-family="Source Sans Pro" font-style="normal" font-weight="400">
Matematiko</text>
</svg>