<?xml version="1.0" encoding="UTF-8" standalone="no"?>
<!-- Created by diasvg.py -->
<svg width="20.100cm" height="10.100cm" viewBox="4.950 3.950 25.050 14.050"
 xmlns="http://www.w3.org/2000/svg"
 xmlns:xlink="http://www.w3.org/1999/xlink">
<rect x="16.000" y="4.000" width="9.000" height="10.000" fill="none" stroke="#FFFFFF" stroke-width="0.100" />
<rect x="5.000" y="10.000" width="2.000" height="2.000" fill="none" stroke="#FFFFFF" stroke-width="0.100" />
<text x="6.000" y="11.230"  fill="#FFFFFF" text-anchor="middle" font-size="0.80" font-family="Source Sans Pro" font-style="normal" font-weight="400">
K</text>
<ellipse cx="10.000" cy="11.000" rx="1.000" ry="1.000" fill="none" stroke="#FFFFFF"  stroke-width="0.100" /><ellipse cx="14.000" cy="11.000" rx="1.000" ry="1.000" fill="none" stroke="#FFFFFF"  stroke-width="0.100" /><line x1="7.049" y1="11.000" x2="8.951" y2="11.000" stroke="#FFFFFF" stroke-width="0.100" />
<line x1="11.049" y1="11.000" x2="12.951" y2="11.000" stroke="#FFFFFF" stroke-width="0.100" />
<rect x="19.000" y="10.000" width="2.000" height="2.000" fill="none" stroke="#FFFFFF" stroke-width="0.100" />
<text x="20.000" y="11.230"  fill="#FFFFFF" text-anchor="middle" font-size="0.80" font-family="Source Sans Pro" font-style="normal" font-weight="400">
S</text>
<line x1="15.050" y1="11.000" x2="18.950" y2="11.000" stroke="#FFFFFF" stroke-width="0.100" />
<rect x="19.000" y="6.000" width="2.000" height="2.000" fill="none" stroke="#FFFFFF" stroke-width="0.100" />
<line x1="20.000" y1="8.049" x2="20.000" y2="9.951" stroke="#FFFFFF" stroke-width="0.100" />
<line x1="18.950" y1="7.700" x2="14.873" y2="10.418" stroke="#FFFFFF" stroke-width="0.100" />
<polyline fill="none" stroke="#FFFFFF" stroke-width="0.100"  points="6.000,9.000 14.000,9.000 17.565,7.218 "/>
<polygon fill="#FFFFFF" stroke="none" stroke-width="0.100" points="17.900,7.050 17.565,7.497 17.565,7.218 17.341,7.050 "/>
<polygon fill="none" stroke="#FFFFFF" stroke-width="0.100"  points="17.900,7.050 17.565,7.497 17.565,7.218 17.341,7.050 "/>
<line x1="6.000" y1="13.000" x2="19.290" y2="13.000" stroke="#FFFF00" stroke-width="0.300" stroke-dasharray="1.00,1.00"/>
<polygon fill="#FFFF00" stroke="none" stroke-width="0.300" points="19.665,13.000 19.165,13.250 19.290,13.000 19.165,12.750 "/>
<polygon fill="none" stroke="#FFFF00" stroke-width="0.300"  points="19.665,13.000 19.165,13.250 19.290,13.000 19.165,12.750 "/>
<line x1="22.000" y1="11.000" x2="22.000" y2="7.487" stroke="#FFFFFF" stroke-width="0.100" />
<polygon fill="#FFFFFF" stroke="none" stroke-width="0.100" points="22.000,7.112 22.250,7.612 22.000,7.487 21.750,7.612 "/>
<polygon fill="none" stroke="#FFFFFF" stroke-width="0.100"  points="22.000,7.112 22.250,7.612 22.000,7.487 21.750,7.612 "/>
</svg>